<svg xmlns="http://www.w3.org/2000/svg" width="2251" height="2251" viewBox="0 0 2251 2251" version="1.1"><path d="M 1433 556.243 L 1433 570.662 1448.750 573.891 C 1598.057 604.501, 1736.672 672.894, 1853.271 773.481 L 1861.042 780.185 1860.771 759.880 L 1860.500 739.575 1851.500 732.204 C 1823.146 708.984, 1778.020 677.333, 1745.362 657.759 C 1666.322 610.387, 1581.806 575.342, 1497.500 554.982 C 1483.095 551.503, 1448.144 544.268, 1437.250 542.510 L 1433 541.824 1433 556.243 M 1520.221 648.101 L 1520.500 661.203 1538.332 667.566 C 1610.303 693.249, 1675.105 726.524, 1735.500 768.808 C 1752.260 780.542, 1771.613 795.106, 1783.147 804.663 C 1787.352 808.149, 1791.065 811, 1791.397 811 C 1791.728 811, 1792 802.299, 1792 791.665 L 1792 772.329 1778.250 762.337 C 1718.168 718.674, 1648.192 680.881, 1578.500 654.457 C 1563.579 648.799, 1522.727 635, 1520.900 635 C 1520.324 635, 1520.053 640.226, 1520.221 648.101 M 1580 744.793 L 1580 759.587 1595.734 767.043 C 1661.882 798.392, 1728.846 843.898, 1782.461 893.936 L 1791.500 902.372 1791.795 882.436 L 1792.090 862.500 1787.795 858.625 C 1761.074 834.517, 1708.753 797.188, 1670 774.584 C 1646.561 760.912, 1584.577 730, 1580.603 730 C 1580.271 730, 1580 736.657, 1580 744.793 M 1579.004 819.250 L 1579.008 834.500 1592.754 841.901 C 1647.578 871.419, 1696.205 906.767, 1743.580 951.538 L 1757.660 964.844 1768.080 954.940 L 1778.500 945.035 1769.882 936.686 C 1735.753 903.621, 1678.914 860.957, 1630.500 832.064 C 1614.750 822.665, 1580.817 804, 1579.479 804 C 1579.215 804, 1579.002 810.862, 1579.004 819.250 M 1524 870.393 L 1524 883.685 1532.250 887.520 C 1587.688 913.294, 1649.838 956.261, 1696.172 1000.845 L 1707.844 1012.076 1717.422 1002.920 C 1722.690 997.884, 1727 993.393, 1727 992.940 C 1727 991.757, 1704.604 971.288, 1689.616 958.773 C 1641.820 918.861, 1579.224 880.149, 1527.750 858.667 L 1524 857.102 1524 870.393 M 1526.041 947.163 L 1526.081 959.500 1539.192 967 C 1572.987 986.333, 1608.064 1012.032, 1637.500 1039.027 L 1646.500 1047.280 1646.777 1029.890 L 1647.053 1012.500 1643.777 1009.727 C 1635.115 1002.396, 1610.912 984.680, 1597 975.487 C 1578.719 963.407, 1562.218 953.728, 1541.250 942.785 L 1526 934.826 1526.041 947.163 M 1778.311 962.356 C 1773.396 967.385, 1768.818 972.247, 1768.139 973.160 C 1767.077 974.588, 1768.148 976.145, 1775.793 984.280 C 1780.682 989.482, 1787.926 997.623, 1791.891 1002.370 C 1795.856 1007.116, 1799.239 1011, 1799.410 1011 C 1800.088 1011, 1798.675 991.467, 1797.964 991 C 1796.775 990.218, 1794.683 971.398, 1795.286 966.904 C 1795.779 963.230, 1795.445 962.442, 1791.538 958.042 L 1787.248 953.213 1778.311 962.356 M 1726.861 1016.250 C 1721.163 1022.438, 1717.278 1026.890, 1718.230 1026.144 C 1719.734 1024.966, 1720.384 1025.145, 1723.207 1027.520 L 1726.453 1030.252 1727.654 1022.484 C 1728.780 1015.202, 1729.155 1014.411, 1733.640 1009.858 C 1736.272 1007.186, 1738.154 1005, 1737.824 1005 C 1737.493 1005, 1732.560 1010.063, 1726.861 1016.250 M 1579.025 1063.215 L 1579.050 1076.500 1589.094 1085.500 C 1594.618 1090.450, 1601.567 1096.695, 1604.537 1099.379 L 1609.936 1104.257 1617.718 1097.012 C 1621.998 1093.027, 1625.615 1089.473, 1625.756 1089.116 C 1626.268 1087.812, 1586.729 1054.243, 1580.750 1050.906 C 1579.122 1049.998, 1579.002 1050.853, 1579.025 1063.215 M 1634.750 1112.722 C 1630.487 1117.024, 1627 1120.934, 1627 1121.411 C 1627 1121.888, 1629.395 1125.028, 1632.322 1128.389 C 1645.427 1143.436, 1662.416 1166.252, 1673.355 1183.493 L 1679 1192.391 1679 1169.762 L 1679 1147.133 1671.841 1138.316 C 1667.903 1133.467, 1660.816 1125.279, 1656.091 1120.121 C 1651.366 1114.963, 1646.375 1109.428, 1645 1107.821 L 1642.500 1104.900 1634.750 1112.722" stroke="none" fill="#e89825" fill-rule="evenodd"/><path d="M 1280 541.759 L 1280 554.710 1294.750 555.387 C 1342.276 557.567, 1390.733 562.739, 1426.250 569.421 L 1433 570.691 1433 556.365 C 1433 542.326, 1432.955 542.028, 1430.750 541.527 C 1426.820 540.634, 1401.110 537.105, 1383.500 535.041 C 1362.987 532.637, 1328.939 530.339, 1300.750 529.457 L 1280 528.807 1280 541.759 M 1304 610.338 L 1304 621.813 1313.750 622.459 C 1381.652 626.958, 1448.073 638.898, 1506.153 657.046 C 1513.113 659.221, 1519.075 661, 1519.403 661 C 1519.731 661, 1520 655.017, 1520 647.704 L 1520 634.408 1500.750 629.206 C 1444.988 614.137, 1387.725 604.381, 1335.500 601.052 C 1326.700 600.491, 1316.013 599.769, 1311.750 599.447 L 1304 598.863 1304 610.338 M 1430.022 688.250 C 1430.042 692.271, 1430.348 692.715, 1435.712 696.500 C 1438.830 698.700, 1444.899 703.992, 1449.200 708.260 L 1457.019 716.019 1475.760 721.452 C 1486.067 724.439, 1501.925 729.412, 1511 732.503 C 1528.776 738.557, 1567.495 753.697, 1575.246 757.624 L 1580 760.034 1580 744.714 L 1580 729.395 1562.750 722.572 C 1540.070 713.602, 1505.946 702.327, 1482.419 696.029 C 1464.500 691.233, 1433.682 684, 1431.164 684 C 1430.458 684, 1430.008 685.672, 1430.022 688.250 M 1861.057 760.187 L 1861.114 780.500 1868.307 786.914 C 1872.263 790.442, 1882.590 800.169, 1891.257 808.530 L 1907.013 823.732 1918.067 813.215 L 1929.120 802.698 1924.810 798.236 C 1916.824 789.969, 1889.478 764.593, 1875.186 752.187 L 1861 739.873 1861.057 760.187 M 1439 766.736 L 1439 780.686 1447.250 782.943 C 1481.422 792.292, 1527.416 809.705, 1563.725 827.040 C 1571.742 830.868, 1578.459 834, 1578.651 834 C 1578.843 834, 1578.998 827.138, 1578.995 818.750 L 1578.991 803.500 1561.745 795.598 C 1540.383 785.809, 1518.488 777.007, 1497.181 769.641 C 1488.205 766.539, 1480.738 764, 1480.587 764 C 1480.437 764, 1480.901 767.038, 1481.620 770.750 C 1482.339 774.462, 1482.943 778.737, 1482.963 780.250 L 1483 783 1468 783 C 1459.750 783, 1453 782.815, 1453 782.588 C 1453 780.321, 1449.551 765.162, 1447.922 760.264 C 1446.372 755.609, 1445.365 754, 1444 754 C 1442.990 754, 1441.452 753.727, 1440.582 753.393 C 1439.186 752.857, 1439 754.426, 1439 766.736 M 1792 792.323 L 1792 811.763 1806.250 824.119 C 1814.088 830.914, 1828.419 844.243, 1838.097 853.737 C 1847.776 863.232, 1856.023 871, 1856.423 871 C 1856.824 871, 1862.294 866.174, 1868.578 860.276 L 1880.003 849.553 1873.251 842.697 C 1854.743 823.903, 1803.584 779.730, 1793.250 773.621 C 1792.268 773.040, 1792 777.043, 1792 792.323 M 1923.963 809.750 C 1920.952 812.913, 1916.278 817.842, 1913.577 820.704 L 1908.666 825.908 1918.112 835.749 C 1956.858 876.117, 2002.118 935.230, 2030.055 981.955 L 2037.500 994.408 2037.765 964.191 L 2038.029 933.974 2027.838 919.737 C 2009.963 894.766, 1988.243 867.375, 1968.592 845.020 C 1955.218 829.805, 1931.029 804, 1930.142 804 C 1929.754 804, 1926.974 806.587, 1923.963 809.750 M 1429 836.836 L 1429 847.895 1443.750 852.549 C 1462.679 858.523, 1488.471 868.123, 1507.945 876.444 C 1516.384 880.050, 1523.462 883, 1523.673 883 C 1523.885 883, 1523.932 877.123, 1523.779 869.940 L 1523.500 856.879 1516.500 853.896 C 1496.250 845.267, 1446.874 829.100, 1432.750 826.475 L 1429 825.777 1429 836.836 M 1871.478 864.501 L 1860.656 876.104 1867.503 883.003 C 1871.268 886.797, 1874.661 889.709, 1875.043 889.474 C 1875.424 889.238, 1876.050 886.684, 1876.432 883.797 C 1876.815 880.911, 1877.503 878.089, 1877.960 877.525 C 1878.417 876.961, 1879.090 874.260, 1879.455 871.523 C 1879.819 868.785, 1880.452 866.310, 1880.860 866.023 C 1882.134 865.125, 1884.102 854.702, 1883.173 853.773 C 1882.674 853.274, 1877.651 857.882, 1871.478 864.501 M 1792 882.725 L 1792 902.550 1799.397 909.898 C 1804.539 915.006, 1807.206 916.997, 1808.147 916.431 C 1810.277 915.149, 1828.986 897.574, 1828.993 896.849 C 1829.001 896.078, 1795.525 864.873, 1793.436 863.704 C 1792.209 863.018, 1792 865.790, 1792 882.725 M 1825.250 913.229 C 1819.612 918.897, 1815 924.113, 1815 924.820 C 1815 925.528, 1818.938 930.252, 1823.750 935.318 C 1836.200 948.424, 1860.656 977.882, 1873.718 995.507 L 1875.937 998.500 1875.946 973 L 1875.954 947.500 1868.818 939.500 C 1864.893 935.100, 1857.327 926.775, 1852.005 921 C 1846.682 915.225, 1840.791 908.795, 1838.914 906.711 L 1835.500 902.923 1825.250 913.229 M 1492.009 931.294 L 1492.017 941.500 1509.009 950.321 L 1526 959.142 1526 947.210 L 1526 935.278 1518.050 931.644 C 1509.927 927.931, 1502.429 924.835, 1495.750 922.436 L 1492 921.089 1492.009 931.294 M 1795.189 967.085 C 1794.830 973.153, 1796.844 990.256, 1798.005 991 C 1798.433 991.275, 1798.968 996.010, 1799.193 1001.523 L 1799.601 1011.546 1807.287 1021.201 C 1829.116 1048.620, 1851.341 1081.779, 1868.147 1112 L 1873.986 1122.500 1873.993 1090.159 L 1874 1057.817 1863.529 1043.159 C 1844.136 1016.011, 1823.783 991.149, 1805 971.665 L 1795.500 961.810 1795.189 967.085 M 1733.667 1009.625 C 1729.202 1014.459, 1728.744 1015.440, 1727.652 1022.498 C 1727.003 1026.700, 1726.140 1029.807, 1725.736 1029.402 C 1725.331 1028.998, 1725 1029.019, 1725 1029.450 C 1725 1029.880, 1727.411 1032.837, 1730.359 1036.021 C 1750.523 1057.801, 1780.134 1098.047, 1798.399 1128.500 L 1804.997 1139.500 1804.998 1111.060 L 1805 1082.619 1794.910 1069.284 C 1789.360 1061.949, 1781.005 1051.348, 1776.343 1045.724 C 1767.969 1035.624, 1742.046 1007.009, 1739.707 1005.283 C 1738.884 1004.676, 1736.961 1006.059, 1733.667 1009.625 M 1517.009 1021.233 L 1517.017 1031.500 1523.240 1035.500 C 1538.648 1045.404, 1553.335 1056.119, 1577.750 1075.265 C 1578.737 1076.038, 1579 1073.400, 1579 1062.742 L 1579 1049.238 1564.250 1039.271 C 1549.372 1029.218, 1531.525 1018.327, 1522.109 1013.555 L 1517 1010.966 1517.009 1021.233 M 1647 1030.284 L 1647 1047.568 1652.426 1052.927 L 1657.852 1058.285 1661.676 1055.220 C 1663.779 1053.534, 1668.179 1049.427, 1671.453 1046.093 L 1677.405 1040.032 1674.453 1036.910 C 1670.851 1033.100, 1648.190 1013, 1647.497 1013 C 1647.223 1013, 1647 1020.778, 1647 1030.284 M 1681.750 1063.439 C 1676.938 1068.608, 1673 1073.146, 1673 1073.524 C 1673 1073.902, 1676.072 1077.501, 1679.826 1081.521 C 1683.580 1085.541, 1691.949 1095.727, 1698.423 1104.156 L 1710.194 1119.482 1709.491 1108.991 C 1709.084 1102.928, 1708.199 1097.565, 1707.394 1096.285 C 1706.627 1095.067, 1705.997 1093.267, 1705.993 1092.285 C 1705.989 1091.303, 1704.394 1089.415, 1702.448 1088.090 C 1700.501 1086.764, 1699.112 1085.152, 1699.359 1084.506 C 1699.607 1083.860, 1698.786 1082.563, 1697.535 1081.624 C 1694.735 1079.521, 1693.840 1073.945, 1694.893 1065.164 C 1695.545 1059.729, 1695.383 1058.486, 1693.754 1056.414 C 1692.709 1055.086, 1691.550 1054.009, 1691.177 1054.021 C 1690.805 1054.033, 1686.563 1058.271, 1681.750 1063.439 M 1679.022 1169.850 L 1679 1192.201 1684.540 1202.071 C 1693.207 1217.513, 1702.793 1237.136, 1709.665 1253.500 L 1715.965 1268.500 1715.982 1235.183 L 1716 1201.867 1707.434 1188.193 C 1700.042 1176.393, 1687.462 1158.210, 1681.009 1150 L 1679.044 1147.500 1679.022 1169.850" stroke="none" fill="#d83be2" fill-rule="evenodd"/><path d="M 1883.429 853.660 C 1884.096 854.999, 1881.967 865.243, 1880.860 866.023 C 1880.452 866.310, 1879.819 868.785, 1879.455 871.523 C 1879.090 874.260, 1878.430 876.950, 1877.989 877.500 C 1877.548 878.050, 1876.863 880.750, 1876.466 883.500 C 1875.522 890.049, 1875.194 890.467, 1872.688 888.315 C 1871.526 887.317, 1874.244 890.550, 1878.728 895.500 C 1909.476 929.446, 1943.599 975.278, 1969.185 1017 C 2041.725 1135.285, 2085.480 1275.773, 2092.053 1411.500 C 2092.639 1423.600, 2093.569 1435.840, 2094.120 1438.699 C 2095.949 1448.202, 2104.350 1452.592, 2115.944 1450.105 C 2122.780 1448.639, 2125.512 1446.676, 2127.448 1441.839 C 2128.934 1438.123, 2128.938 1435.643, 2127.489 1411.148 C 2126.623 1396.492, 2125.024 1375.725, 2123.936 1365 C 2106.012 1188.281, 2032.949 1020.668, 1915.792 887.500 C 1904.327 874.468, 1882.346 851.484, 1883.429 853.660 M 2038 964.944 L 2038 994.888 2048.040 1012.694 C 2086.153 1080.285, 2117.058 1158.939, 2135.981 1236.500 C 2150.652 1296.637, 2159.932 1364.607, 2160.505 1416.121 C 2160.795 1442.199, 2161.124 1443.826, 2166.898 1447.713 C 2171.402 1450.745, 2183.359 1450.928, 2189.672 1448.062 C 2197.893 1444.329, 2198.406 1441.598, 2196.251 1413 C 2195.608 1404.475, 2194.587 1388.097, 2193.980 1376.605 C 2186.976 1243.895, 2143.071 1105.555, 2068.791 982.153 C 2058.696 965.382, 2039.109 935, 2038.393 935 C 2038.177 935, 2038 948.475, 2038 964.944 M 1876.013 973.110 L 1876.025 998.500 1885.194 1011.500 C 1949.849 1103.167, 1993.421 1209.693, 2012.401 1322.500 C 2016.835 1348.850, 2019.690 1374.360, 2023.447 1421.169 C 2024.363 1432.579, 2025.407 1439.887, 2026.397 1441.800 C 2029.953 1448.678, 2037.387 1451.929, 2046.250 1450.482 C 2056.472 1448.814, 2060.761 1442.353, 2059.694 1430.230 C 2057.564 1406.031, 2050.584 1341.524, 2048.470 1326.500 C 2041.098 1274.114, 2024.442 1213.470, 2002.124 1157.758 C 1973.705 1086.816, 1930.876 1014.522, 1882.070 955.110 L 1876 947.721 1876.013 973.110 M 1693.655 1056.164 C 1695.390 1058.478, 1695.553 1059.662, 1694.893 1065.164 C 1693.840 1073.945, 1694.735 1079.521, 1697.535 1081.624 C 1698.786 1082.563, 1699.607 1083.860, 1699.359 1084.506 C 1699.112 1085.152, 1700.501 1086.764, 1702.448 1088.090 C 1704.394 1089.415, 1705.989 1091.303, 1705.993 1092.285 C 1705.997 1093.267, 1706.627 1095.067, 1707.394 1096.285 C 1708.197 1097.561, 1709.082 1102.898, 1709.482 1108.871 L 1710.177 1119.241 1719.990 1133.371 C 1776.172 1214.267, 1808.921 1306.432, 1815.975 1403.500 C 1816.534 1411.200, 1816.994 1421.463, 1816.996 1426.307 C 1817.001 1438.070, 1818.409 1443.274, 1822.577 1446.933 C 1828.942 1452.522, 1841.509 1452.308, 1847.847 1446.503 L 1851.500 1443.159 1851.839 1430.852 C 1852.853 1394.044, 1843.880 1340.135, 1827.443 1284.284 C 1805.678 1210.330, 1768.087 1141.460, 1716.047 1080.201 L 1703.900 1065.901 1706.950 1061.754 C 1709.883 1057.765, 1710.827 1054.995, 1709.250 1055.004 C 1708.838 1055.007, 1706.483 1056.346, 1704.019 1057.981 L 1699.538 1060.954 1695.597 1057.227 C 1692.930 1054.705, 1692.303 1054.361, 1693.655 1056.164 M 1874 1090.446 L 1874 1122.291 1880.409 1134.896 C 1914.322 1201.595, 1938.028 1277.720, 1946.461 1347 C 1948.111 1360.552, 1952.523 1408.079, 1953.948 1427.637 C 1954.510 1435.355, 1955.426 1440.923, 1956.464 1442.931 C 1959.700 1449.188, 1968.286 1451.990, 1977.904 1449.927 C 1988.616 1447.630, 1991.432 1441.719, 1989.889 1424.773 C 1989.424 1419.673, 1988.329 1406.500, 1987.454 1395.500 C 1978.908 1288.051, 1949.118 1187.730, 1899.706 1100 C 1892.897 1087.911, 1876.681 1061.487, 1874.882 1059.550 C 1874.371 1059, 1874 1072, 1874 1090.446 M 1676.316 1078.668 C 1676.750 1079.391, 1671.101 1085.112, 1661.509 1093.668 C 1652.979 1101.276, 1646 1107.965, 1646 1108.534 C 1646 1109.103, 1648.395 1111.934, 1651.323 1114.825 L 1656.646 1120.082 1670.544 1104.541 C 1678.187 1095.993, 1684.644 1089, 1684.892 1089 C 1685.140 1089, 1686.266 1089.787, 1687.394 1090.750 C 1688.522 1091.713, 1687.107 1089.752, 1684.248 1086.394 C 1679.241 1080.511, 1674.867 1076.250, 1676.316 1078.668 M 1805 1111.910 L 1805 1139.821 1809.172 1147.160 C 1817.161 1161.213, 1834.884 1198.616, 1841.790 1216 C 1867.839 1281.561, 1883.479 1355.527, 1884.542 1418.185 C 1884.852 1436.483, 1885.124 1439.323, 1886.897 1442.797 C 1889.818 1448.523, 1894.299 1450.355, 1904.004 1449.794 C 1913.029 1449.271, 1917.904 1446.829, 1920.394 1441.583 C 1922.376 1437.404, 1922.401 1433.645, 1920.544 1419 C 1919.741 1412.675, 1918.614 1400.002, 1918.038 1390.837 C 1912.454 1301.895, 1882.146 1207.266, 1833.217 1126 C 1825.076 1112.478, 1806.271 1084, 1805.484 1084 C 1805.218 1084, 1805 1096.560, 1805 1111.910 M 1611.387 1139.308 C 1602.526 1147.664, 1535.597 1217.116, 1462.656 1293.646 C 1368.740 1392.184, 1329.113 1433.113, 1326.870 1433.896 C 1325.127 1434.503, 1322.644 1435, 1321.351 1435 C 1318.034 1435, 1318.412 1436.412, 1322.944 1440.944 C 1327.328 1445.328, 1331.272 1446.517, 1338.978 1445.776 C 1349.177 1444.796, 1348.150 1445.790, 1455.049 1333.490 C 1522.419 1262.718, 1592.369 1188.879, 1624.730 1154.376 C 1636.407 1141.927, 1640.139 1138.509, 1641.111 1139.376 C 1642.528 1140.642, 1639.619 1136.957, 1633.093 1129.223 C 1630.670 1126.350, 1628.420 1124.026, 1628.093 1124.058 C 1627.767 1124.090, 1620.249 1130.953, 1611.387 1139.308 M 1716.030 1235.736 L 1716 1268.971 1720.398 1281.813 C 1733.307 1319.500, 1742.228 1360.285, 1746.946 1403.183 C 1748.075 1413.458, 1749 1425.735, 1749 1430.465 C 1749 1440.678, 1750.580 1445.166, 1755.157 1447.949 C 1762.453 1452.386, 1775.359 1451.366, 1780.555 1445.943 C 1784.321 1442.011, 1784.702 1435.903, 1782.579 1413.482 C 1777.678 1361.720, 1766.938 1316.431, 1748.316 1269 C 1742.003 1252.921, 1726.625 1220.555, 1719.571 1208.500 L 1716.061 1202.500 1716.030 1235.736" stroke="none" fill="#9931f2" fill-rule="evenodd"/><path d="M 1321 667.693 C 1297.083 669.099, 1272.163 675.879, 1250.008 687.008 C 1204.859 709.686, 1171.220 746.908, 1151.505 796 C 1131.977 844.625, 1129.083 903.837, 1143.976 950.059 C 1148.252 963.331, 1159.770 985.890, 1167.560 996.252 C 1184.920 1019.344, 1207.248 1036.347, 1234.703 1047.381 C 1282.834 1066.724, 1348.526 1064.941, 1393.500 1043.071 C 1422.613 1028.914, 1445.810 1004.670, 1461.981 971.500 C 1474.345 946.138, 1483.980 909.982, 1486.498 879.500 C 1486.861 875.100, 1487.378 870.712, 1487.647 869.750 C 1488.108 868.095, 1484.083 868, 1413.138 868 L 1338.142 868 1337.110 873.250 C 1335.257 882.681, 1334 890.332, 1334 892.184 C 1334 893.919, 1336.693 894, 1394.114 894 L 1454.227 894 1453.546 898.750 C 1453.172 901.362, 1451.992 907.775, 1450.923 913 C 1437.114 980.548, 1398.528 1022.491, 1341 1032.486 C 1320.310 1036.081, 1291.391 1035.485, 1271 1031.045 C 1197.752 1015.094, 1158.014 949.834, 1167.456 861 C 1174.040 799.065, 1201.617 749.126, 1245.410 719.833 C 1263.618 707.654, 1281.782 700.104, 1303.172 695.823 C 1312.718 693.913, 1317.647 693.560, 1334.500 693.580 C 1355.941 693.606, 1365.061 694.764, 1381.636 699.567 C 1420.415 710.805, 1445.871 739.441, 1452.469 779.250 L 1453.091 783 1468.174 783 L 1483.258 783 1482.566 776.878 C 1478.577 741.623, 1457.554 709.216, 1426.384 690.272 C 1398.872 673.551, 1360.651 665.363, 1321 667.693 M 315.679 678.250 C 313.799 681.688, 270.976 764.825, 220.518 863 C 170.059 961.175, 127.044 1044.763, 124.929 1048.750 L 121.083 1056 136.291 1055.986 L 151.500 1055.972 181.500 997.494 L 211.500 939.016 297.461 939.258 L 383.423 939.500 395.428 997.750 L 407.432 1056 422.216 1056 C 434.078 1056, 437 1055.729, 437 1054.628 C 437 1053.873, 419.675 967.845, 398.500 863.455 C 377.325 759.064, 360 673.281, 360 672.827 C 360 672.372, 350.797 672, 339.549 672 L 319.098 672 315.679 678.250 M 479.608 861.250 C 463.194 965.338, 449.536 1051.737, 449.257 1053.250 L 448.750 1056 463.264 1056 L 477.777 1056 478.343 1052.750 C 478.653 1050.963, 490.659 974.800, 505.023 883.500 C 519.386 792.200, 531.454 716.680, 531.841 715.677 C 532.279 714.541, 548.910 777.124, 575.954 881.677 C 599.829 973.980, 619.759 1050.984, 620.242 1052.798 C 621.116 1056.081, 621.146 1056.095, 626.694 1055.798 L 632.267 1055.500 730.384 884.861 C 784.348 791.010, 828.623 714.540, 828.772 714.929 C 829.030 715.595, 776.601 1048.958, 775.486 1053.750 L 774.962 1056 790.481 1056 C 799.016 1056, 806 1055.741, 806 1055.424 C 806 1055.107, 819.500 969.446, 836 865.066 C 852.500 760.687, 866 674.546, 866 673.642 C 866 672.169, 863.752 672, 844.204 672 L 822.409 672 728.959 835.954 C 666.108 946.223, 635.311 999.349, 634.904 998.204 C 634.570 997.267, 615.893 923.492, 593.399 834.259 L 552.500 672.018 530.976 672.009 L 509.452 672 479.608 861.250 M 914.529 674.250 C 914.248 675.487, 900.731 760.875, 884.490 864 C 868.250 967.125, 854.732 1052.533, 854.451 1053.795 L 853.939 1056.089 933.720 1055.739 C 1010.789 1055.401, 1013.815 1055.317, 1022.782 1053.266 C 1079.521 1040.288, 1111.579 1006.274, 1117.038 953.260 C 1119.771 926.715, 1113.335 901.494, 1099.569 884.805 C 1089.767 872.922, 1074.494 863.525, 1057.258 858.773 C 1052.724 857.523, 1049.020 856.275, 1049.026 856 C 1049.031 855.725, 1052.290 854.466, 1056.268 853.202 C 1082.879 844.744, 1105.417 827.035, 1115.296 806.820 C 1122.110 792.880, 1124.083 783.781, 1124.692 763.500 C 1125.131 748.886, 1124.913 745.096, 1123.139 736.500 C 1115.971 701.765, 1089.470 679.995, 1046.463 673.513 C 1038.441 672.304, 1024.668 672.011, 975.769 672.006 L 915.038 672 914.529 674.250 M 941.523 698.250 C 941.295 698.938, 936.135 731, 930.056 769.500 C 923.977 808, 918.761 840.542, 918.466 841.815 L 917.929 844.130 969.715 843.729 C 1017.957 843.355, 1022.086 843.185, 1030.064 841.248 C 1063.569 833.112, 1083.918 815.160, 1092.187 786.443 C 1094.159 779.596, 1094.474 776.224, 1094.467 762 C 1094.459 746.548, 1094.283 744.999, 1091.689 737.609 C 1083.281 713.654, 1064.776 701.411, 1031.869 698.034 C 1016.691 696.477, 942.052 696.655, 941.523 698.250 M 279.401 806.243 L 224.307 913.500 300.814 913.756 C 342.893 913.897, 377.521 913.812, 377.766 913.567 C 378.191 913.142, 336.645 705.939, 335.193 701.243 C 334.639 699.449, 323.204 720.968, 279.401 806.243 M 1925 806.655 C 1920.875 810.804, 1913 818.275, 1907.500 823.258 C 1902 828.241, 1891.423 838.208, 1883.995 845.409 C 1876.567 852.609, 1864.642 863.880, 1857.495 870.455 C 1850.348 877.030, 1838.422 888.280, 1830.993 895.455 C 1815.575 910.347, 1778.605 945.191, 1764.205 958.405 C 1758.867 963.303, 1745.050 976.380, 1733.500 987.466 C 1721.950 998.552, 1709.800 1010.026, 1706.500 1012.964 C 1703.200 1015.902, 1691.500 1026.932, 1680.500 1037.475 C 1669.500 1048.018, 1657.350 1059.509, 1653.500 1063.010 C 1649.650 1066.511, 1638.625 1076.869, 1629 1086.028 C 1619.375 1095.187, 1604.525 1109.212, 1596 1117.195 C 1587.475 1125.179, 1517.500 1191.164, 1440.500 1263.828 C 1327.145 1370.801, 1299.977 1396.924, 1297.750 1401.087 C 1289.581 1416.360, 1300.493 1435, 1317.602 1435 C 1328.370 1435, 1317.849 1445.347, 1478.145 1277.110 C 1559.691 1191.524, 1632.989 1114.750, 1641.031 1106.500 C 1649.072 1098.250, 1663.037 1083.625, 1672.063 1074 C 1681.089 1064.375, 1694.584 1050.200, 1702.051 1042.500 C 1709.518 1034.800, 1718.285 1025.575, 1721.532 1022 C 1724.779 1018.425, 1734.425 1008.275, 1742.968 999.445 C 1766.224 975.406, 1794.315 946.008, 1814.500 924.584 C 1824.400 914.076, 1838.595 899.184, 1846.045 891.489 C 1853.495 883.795, 1862.256 874.575, 1865.513 871 C 1868.770 867.425, 1878.425 857.281, 1886.968 848.459 C 1913.280 821.284, 1934.193 798.997, 1933.326 799.055 C 1932.872 799.086, 1929.125 802.505, 1925 806.655 M 914 869.697 C 914 870.666, 889.110 1024.841, 888.391 1028.327 L 887.807 1031.154 946.654 1030.712 C 1011.709 1030.222, 1013.270 1030.091, 1031.487 1023.580 C 1061.482 1012.859, 1080.005 990.768, 1085.535 959.119 C 1090.395 931.307, 1084.332 906.263, 1069.034 890.966 C 1057.489 879.420, 1039.859 872.538, 1015.576 870.098 C 1003.677 868.902, 914 868.548, 914 869.697 M 575.500 1062.016 C 532.278 1066.847, 500.171 1087.085, 485.942 1118.468 C 477.536 1137.008, 474.886 1163.578, 479.623 1181.831 C 484.679 1201.314, 498.456 1216.277, 522.875 1228.812 C 538.375 1236.768, 553.639 1242.409, 582.500 1250.849 C 622.735 1262.614, 639.416 1269.100, 653.448 1278.437 C 672.643 1291.209, 682.211 1307.412, 683.812 1329.862 C 685.380 1351.836, 682.015 1370.413, 673.475 1386.938 C 654.850 1422.976, 617.313 1442.021, 565 1441.975 C 536.239 1441.949, 515.482 1437.695, 495.500 1427.728 C 485.076 1422.529, 479.902 1418.949, 472.133 1411.557 C 457.693 1397.820, 448.671 1378.771, 444.882 1354.021 L 443.654 1346 438.327 1346 C 435.397 1346, 433 1346.349, 433 1346.776 C 433 1347.203, 433.474 1351.366, 434.053 1356.026 C 437.268 1381.904, 447.600 1402.949, 465.234 1419.538 C 481.591 1434.926, 501.777 1444.287, 530.264 1449.697 C 537.557 1451.082, 544.866 1451.451, 565 1451.450 C 587.580 1451.449, 591.652 1451.196, 600.565 1449.243 C 642.199 1440.120, 669.155 1420.939, 684.528 1389.500 C 690.643 1376.995, 693.530 1366.696, 695.090 1351.818 C 697.143 1332.247, 694.434 1313.795, 687.355 1299.121 C 683.651 1291.445, 681.347 1288.243, 674.665 1281.492 C 657.854 1264.507, 638.260 1255.244, 590.179 1241.551 C 559.503 1232.815, 545.748 1228.010, 531.500 1221.052 C 500.474 1205.900, 488.678 1189.030, 488.812 1160 C 488.924 1135.857, 495.939 1116.690, 510.274 1101.367 C 529.468 1080.848, 556.194 1071.581, 596 1071.644 C 648.013 1071.726, 679.880 1089.955, 692.767 1127 C 694.393 1131.675, 696.035 1137.300, 696.415 1139.500 C 697.723 1147.065, 697.662 1147, 703.429 1147 L 708.723 1147 707.436 1138.962 C 700.845 1097.799, 672.769 1072.110, 624.891 1063.436 C 614.732 1061.595, 586.519 1060.784, 575.500 1062.016 M 920 1061.687 C 886.245 1064.223, 851.877 1076.927, 822.871 1097.591 C 812.408 1105.046, 792.663 1124.037, 784.498 1134.500 C 760.619 1165.099, 745.348 1201.972, 739.355 1243.500 C 736.905 1260.485, 736.900 1295.490, 739.347 1310.500 C 748.625 1367.424, 776.663 1408.663, 821.874 1431.887 C 850.051 1446.360, 875.375 1452.019, 911.801 1451.980 C 960.820 1451.929, 995.772 1440.458, 1026.603 1414.302 C 1044.329 1399.264, 1062.070 1372.207, 1072.045 1345 C 1078.486 1327.431, 1084.366 1299.606, 1086.573 1276.250 L 1087.258 1269 1018.098 1269 C 963.644 1269, 948.854 1269.266, 948.547 1270.250 C 948.332 1270.938, 947.875 1273.188, 947.533 1275.250 L 946.909 1279 1010.892 1279 L 1074.874 1279 1074.349 1282.750 C 1069.135 1319.953, 1063.363 1340.594, 1051.854 1363.192 C 1030.115 1405.881, 996.150 1430.597, 947 1439.495 C 932.686 1442.087, 900.781 1442.636, 885.024 1440.562 C 822.397 1432.320, 776.910 1395.996, 757.971 1339.105 C 748.327 1310.133, 746.116 1281.822, 750.634 1245.159 C 756.993 1193.551, 782.144 1144.829, 818.203 1114.264 C 859.780 1079.020, 913.461 1064.829, 970 1074.133 C 983.752 1076.396, 1002.040 1081.989, 1012.049 1086.994 C 1042.911 1102.425, 1063.972 1128.237, 1069.987 1158 L 1071.705 1166.500 1077.352 1166.800 C 1080.459 1166.965, 1083 1166.694, 1083 1166.198 C 1083 1165.702, 1081.822 1160.617, 1080.381 1154.898 C 1077.133 1142, 1071.850 1129.580, 1065.497 1119.905 C 1059.011 1110.028, 1042.414 1093.496, 1032.500 1087.038 C 1002.832 1067.713, 962.070 1058.528, 920 1061.687 M 204.404 1255.676 C 148.357 1361.098, 102.342 1447.747, 102.149 1448.229 C 101.956 1448.711, 104.419 1448.970, 107.623 1448.803 L 113.447 1448.500 146.473 1385.776 L 179.500 1323.051 274.750 1323.026 C 350.303 1323.005, 369.998 1323.258, 369.988 1324.250 C 369.982 1324.938, 376.358 1353.287, 384.158 1387.250 L 398.340 1449 403.778 1449 C 408.919 1449, 409.186 1448.877, 408.653 1446.750 C 407.604 1442.562, 321 1064.775, 321 1064.386 C 321 1064.174, 317.694 1064, 313.654 1064 L 306.308 1064 204.404 1255.676 M 248.356 1193.773 L 185.211 1312.500 275.767 1312.755 C 325.573 1312.896, 366.454 1312.879, 366.615 1312.718 C 367.074 1312.259, 312.560 1075.007, 312 1075.027 C 311.725 1075.037, 283.085 1128.473, 248.356 1193.773" stroke="none" fill="#fbfbfb" fill-rule="evenodd"/></svg>